<?xml version="1.0" encoding="UTF-8"?>
<svg width="1014px" height="1170px" viewBox="0 0 1014 1170" version="1.1" xmlns="http://www.w3.org/2000/svg" xmlns:xlink="http://www.w3.org/1999/xlink">
    <!-- Generator: Sketch 61.2 (89653) - https://sketch.com -->
    <title>Artboard</title>
    <desc>Created with Sketch.</desc>
    <g id="Artboard" stroke="none" stroke-width="1" fill="none" fill-rule="evenodd">
        <path d="M498.91745,420.24576 C492.396998,420.381976 451.343988,424.582825 462.37019,443.879223 C468.345278,454.335922 479.89492,460.522969 487.358216,469.975135 C499.284493,485.079607 477.003893,518.617685 506.006191,519.87329 C535.706343,521.159107 553.817423,485.282533 547.006635,459.086691 C538.355191,425.811271 521.707595,423.653083 492.326393,417" id="Path-Copy-2" fill="#D3EDFF" transform="translate(504.469316, 468.453452) rotate(-47.000000) translate(-504.469316, -468.453452) "></path>
        <path d="M125.41745,1005.24576 C118.896998,1005.38198 77.8439878,1009.58282 88.8701899,1028.87922 C94.845278,1039.33592 106.39492,1045.52297 113.858216,1054.97514 C125.784493,1070.07961 103.503893,1103.61768 132.506191,1104.87329 C162.206343,1106.15911 180.317423,1070.28253 173.506635,1044.08669 C164.855191,1010.81127 148.207595,1008.65308 118.826393,1002" id="Path-Copy-4" fill="#D3EDFF" transform="translate(130.969316, 1053.453452) rotate(-156.000000) translate(-130.969316, -1053.453452) "></path>
        <path d="M348.91745,333.24576 C342.396998,333.381976 301.343988,337.582825 312.37019,356.879223 C318.345278,367.335922 329.89492,373.522969 337.358216,382.975135 C349.284493,398.079607 327.003893,431.617685 356.006191,432.87329 C385.706343,434.159107 403.817423,398.282533 397.006635,372.086691 C388.355191,338.811271 371.707595,336.653083 342.326393,330" id="Path-Copy-3" fill-opacity="0.351835664" fill="#FEECCC" transform="translate(354.469316, 381.453452) rotate(66.000000) translate(-354.469316, -381.453452) "></path>
        <path d="M176.285947,89.530438 C161.947666,89.4177906 147.493388,87.3676718 133.271105,89.1924958 C86.3699005,95.2102669 84.0287476,163.065955 65.0761153,194.257746 C42.710854,231.065961 -8.84895764,251.223845 -14.1891991,295.859089 C-26.3868796,397.810742 101.776498,448.937332 186.094782,440.324429 C238.744677,434.946373 279.359142,379.589581 268.141335,327.078988 C265.22295,313.418018 239.705684,266.988435 246.66123,244.934174 C265.472485,185.288483 274.706435,207.228451 270.495455,152.651092 C266.266417,97.8396741 180.354175,68.0061851 137.102969,89.530438" id="Path-2-Copy" fill="#D3EDFF"></path>
        <path d="M480.344237,158.880196 C461.157849,158.880196 466.19245,156.414524 446.577182,171.73817 C415.07542,196.347665 409.86763,220.090482 419.711086,259.220513 C423.293139,273.460011 428.052434,296.942249 437.094126,311.671018 C438.833729,314.504803 440.408036,318.338526 443.615968,319.220983 C471.017317,326.758709 492.633031,277.067589 501.451849,265.710924 C509.366457,255.518678 516.852294,253.997883 533.656326,236.0434 C537.947208,231.458752 541.019474,225.3608 542.335038,219.177545 C553.833263,165.134996 543.646992,162.793168 502.964065,157.277767" id="Path-4-Copy" fill="#BBCDF1" transform="translate(480.986635, 238.636593) rotate(25.000000) translate(-480.986635, -238.636593) "></path>
        <ellipse id="Oval-Copy" fill="#5C6278" cx="320.25" cy="250.5" rx="11.25" ry="13.5"></ellipse>
        <ellipse id="Oval-Copy-2" fill="#FFE8D6" cx="654.25" cy="79.5" rx="11.25" ry="13.5"></ellipse>
        <path d="M806.06225,271.929334 C745.301478,271.929334 687.410075,250.314228 634.76192,289.664284 C530.270558,367.762764 648.086994,512.797051 748.177371,522.935167 C856.427462,533.899779 914.795752,382.551255 858.993275,301.851964 C838.346887,271.99399 813.560995,272.923459 780.508214,264" id="Path-5-Copy-2" fill="#FFE8D6"></path>
        <path d="M296.239363,473.77025 C276.750573,473.77025 229.558971,487.758536 236.030438,520.947067 C239.427998,538.371255 260.366918,545.916045 265.779502,562.709381 C274.084475,588.476773 261.174809,571.0389 269.531423,610.590758 C274.404037,633.652838 298.673751,660.77939 324.662175,654.471664 C412.099823,633.249419 446.581522,484.740144 335.77591,470.887919 C305.307872,467.078995 315.273332,471.711197 298.658034,473.77025 L296.239363,473.77025 Z" id="Path-6-Copy" fill="#FEECCC"></path>
        <path d="M309.813429,4.33867535 C290.324638,4.33867535 243.133036,18.326962 249.604503,51.5154928 C253.002064,68.9396804 273.940983,76.4844702 279.353568,93.2778064 C287.65854,119.045199 274.748874,101.607326 283.105489,141.159184 C287.978103,164.221264 312.247816,191.347816 338.23624,185.04009 C425.673888,163.817845 460.155587,15.3085701 349.349975,1.45634431 C318.881937,-2.35257951 328.847397,2.27962246 312.232099,4.33867535 L309.813429,4.33867535 Z" id="Path-6-Copy-2" fill="#FEECCC"></path>
        <path d="M801.56225,568.423515 C740.801478,568.423515 682.910075,546.80841 630.26192,586.158465 C525.770558,664.256946 643.586994,809.291232 743.677371,819.429349 C851.927462,830.39396 910.295752,679.045437 854.493275,598.346145 C840.729017,578.440829 823.085341,568.466619 801.56225,568.423515 Z" id="Path-5-Copy-2" fill="#D7E3F6"></path>
        <path d="M218.460294,833.53215 C216.862214,848.401466 216.787881,863.464451 217.712902,878.390761 C218.296557,887.808727 230.041106,910.985604 233.189198,916.34166 C257.675581,958.001939 302.636769,973.170337 327.91923,1019.42134 C363.573828,1084.64683 353.309692,1133.65773 440.095955,1137.32807 C440.101323,1137.3283 467.383278,1140.49635 476.076456,1135.31238 C485.540999,1129.66842 495.101596,1124.05736 503.752604,1117.23153 C534.555758,1092.92722 537.020188,1005.06965 520.112181,974.306051 C493.361732,925.634429 490.750826,942.633094 477.661833,905.047738 C464.099203,866.102321 485.242037,822.86791 460.894587,786.454012 C439.770585,754.861083 403.211586,741.50521 366.300445,746.87999 C356.302669,748.335807 347.305461,754.338475 337.288051,755.652408 C326.285596,757.095544 268.698864,744.824108 255.565658,768.954473 C244.322618,789.611931 225.635909,766.766731 218.460294,833.53215 Z" id="Path-10" fill="#E8ECF6"></path>
        <path d="M841.595185,818.502978 C841.595185,844.595386 805.956039,885.453237 797.81614,896.684697 C770.098108,934.930136 709.561221,944.67899 667.294342,953.116558 C646.814048,957.204957 611.139,956.882208 592.977923,973.567917 C578.292125,987.060671 576.048587,1017.12427 575.493483,1036.0997 C574.511706,1069.66029 570.637416,1080.69702 581.31408,1106.36964 C591.216235,1130.17991 627.800699,1149.74421 648.383063,1161.20857 C731.888928,1207.72126 804.174176,1188.10539 881.357942,1144.28279 C957.588595,1101.00133 981.168119,981.975176 999.883723,906.249803 C1010.59027,862.929947 1028.27304,792.207743 992.613639,754.634946 C977.892209,739.123602 970.611449,727.504697 950.087797,724.799666 C896.089495,717.682656 872.241821,759.316272 848.578392,800.180553 C847.389101,802.234335 845.061365,808.34181 841.595185,818.502978 Z" id="Path-11" fill="#F8F0E4"></path>
        <path d="M503.50098,681.916322 C505.909333,691.278767 503.828268,701.326999 505.495581,710.849373 C507.736035,723.645077 537.440612,729.492593 542.357607,718.363525 C547.277369,707.228194 540.485151,690.542865 525.348323,686.232598 C523.053306,685.579084 517.029708,680.086876 517.468855,676.493499 C520.588759,650.96451 510.732849,625.181135 494.712268,637.139789 C481.226097,649.895898 495.505358,650.833444 503.50098,681.916322 Z" id="Path-12" fill="#B2C5EB"></path>
        <path d="M197.28438,598.015942 C141.018956,598.015942 86.5648096,612.760272 71.0511438,677.717321 C70.8356875,678.619455 68.7452114,723.765805 62.1142775,735.56706 C44.9005725,766.202764 4.63099414,765.169014 8.74013271,804.26922 C13.788584,852.307387 81.6283785,889.496103 114.224515,842.673397 C126.795435,824.615905 135.471499,794.896357 131.625624,772.732393 C127.416683,748.476057 114.569014,727.571041 132.535065,705.294142 C147.78334,686.387134 164.962698,688.466625 184.380347,677.760287 C210.802503,663.191864 223.567197,630.112814 205.852457,605.771251 L197.28438,598.015942 Z" id="Path-13" fill="#C6D6F7"></path>
        <path d="M924.317508,310.599437 C916.362455,297.315952 909.28299,282.932743 895.714576,273.953821 C847.218863,241.861695 840.171675,253.604358 815.11841,241.861695 C775.988798,223.521337 749.561772,158.474411 783.818458,124.075671 C802.090505,105.727854 823.177341,90.1441486 840.171675,70.6069356 C863.614549,43.6562815 836.149214,6.93246683 881.902928,0.381599394 C915.738134,-4.46281487 943.200421,37.8283963 934.029201,69.8389499 C929.570114,85.4026204 918.276615,98.4642224 913.958772,114.067668 C911.003307,124.74787 910.984534,136.321092 912.598167,147.284561 C913.330561,152.260647 917.151282,156.456835 920.719465,160.001678 C929.9052,169.127328 941.51912,175.614249 950.501586,184.940048 C971.93564,207.193364 980.859222,235.934841 982.702561,265.899042 C983.220903,274.324909 984.818077,283.052005 982.702561,291.224428 C978.391983,307.876563 952.582675,342.532171 930.969352,324.120823 L924.317508,310.599437 Z" id="Path-14" fill="#DFF1FD"></path>
        <ellipse id="Oval" fill="#FFE8D6" cx="594" cy="869.25" rx="49.5" ry="38.25"></ellipse>
    </g>
</svg>