<?xml version="1.0" encoding="UTF-8"?>
<svg width="80px" height="80px" viewBox="0 0 80 80" version="1.1" xmlns="http://www.w3.org/2000/svg" xmlns:xlink="http://www.w3.org/1999/xlink">
    <!-- Generator: Sketch 61.2 (89653) - https://sketch.com -->
    <title>phone</title>
    <desc>Created with Sketch.</desc>
    <g id="phone" stroke="none" stroke-width="1" fill="none" fill-rule="evenodd">
        <g id="call-outline-copy" transform="translate(11.000000, 11.000000)" stroke="#2D8FE2" stroke-width="5.81408417">
            <path d="M56.1896692,45.4483392 C53.9755767,43.2176658 48.6132344,39.9622769 46.0115363,38.6503621 C42.6234728,36.943897 42.3446199,36.8044799 39.6815741,38.7828083 C37.9052808,40.1030881 36.7243385,41.2825567 34.6454897,40.8392104 C32.5666409,40.395864 28.049223,37.8961157 24.0936938,33.9534005 C20.1381646,30.0106853 17.4932443,25.3625197 17.0484738,23.2907818 C16.6037034,21.2190439 17.8027711,20.0521229 19.1105914,18.2717667 C20.9538095,15.7622591 20.814383,15.3440079 19.2388638,11.9561727 C18.0105165,9.32118975 14.6600982,4.00939878 12.420909,1.80660882 C10.0255621,-0.559299126 10.0255621,-0.141047868 8.48211096,0.500270727 C7.22555874,1.02892452 6.02006287,1.67153234 4.88072501,2.420044 C2.64990135,3.90204762 1.41179421,5.13310049 0.545955779,6.98316522 C-0.319882654,8.83322995 -0.70888253,13.1704955 3.76252465,21.2929349 C8.23393182,29.4153743 11.3710276,33.5686093 17.8641187,40.0431388 C24.3572098,46.5176683 29.3500721,49.9989129 36.6490482,54.0921985 C45.678307,59.1488562 49.1416607,58.1631774 50.9974272,57.2987915 C52.8531936,56.4344056 54.0899065,55.2075352 55.5747985,52.9768619 C56.3252953,51.8395192 56.9693803,50.6354414 57.4988839,49.379901 C58.1416399,47.8421306 58.5599194,47.8421306 56.1896692,45.4483392 Z" id="Path"></path>
        </g>
    </g>
</svg>